<svg xmlns="http://www.w3.org/2000/svg" viewBox="0 0 396 100" role="img" aria-label="VGAI">
  <rect x="0" y="2" width="8" height="96" rx="1" fill="#0a0a0c"></rect>
  <rect x="12" y="10" width="8" height="80" rx="1" fill="#0a0a0c"></rect>
  <rect x="24" y="20" width="8" height="60" rx="1" fill="#0a0a0c"></rect>
  <rect x="36" y="30" width="8" height="40" rx="1" fill="#0a0a0c"></rect>
  <rect x="48" y="38" width="8" height="24" rx="1" fill="#0099b3"></rect>
  <rect x="60" y="38" width="8" height="24" rx="1" fill="#0a0a0c"></rect>
  <rect x="72" y="30" width="8" height="40" rx="1" fill="#0a0a0c"></rect>
  <rect x="84" y="20" width="8" height="60" rx="1" fill="#0a0a0c"></rect>
  <rect x="96" y="10" width="8" height="80" rx="1" fill="#0a0a0c"></rect>
  <rect x="108" y="2" width="8" height="96" rx="1" fill="#0a0a0c"></rect>
  <g transform="translate(136,10)">
    <g transform="translate(0,0)"><path d="M 6 0 L 28 80 L 50 0" stroke="#0a0a0c" stroke-width="12" stroke-linecap="butt" stroke-linejoin="miter" stroke-miterlimit="4" fill="none"></path></g>
    <g transform="translate(68,0)"><path d="M 50 14 L 50 0 L 0 0 L 0 80 L 50 80 L 50 40 L 28 40" stroke="#0a0a0c" stroke-width="12" stroke-linecap="butt" stroke-linejoin="miter" stroke-miterlimit="4" fill="none"></path></g>
    <g transform="translate(136,0)"><path d="M 6 80 L 28 0 L 50 80" stroke="#0a0a0c" stroke-width="12" stroke-linecap="butt" stroke-linejoin="miter" stroke-miterlimit="4" fill="none"></path><path d="M 14 50 L 42 50" stroke="#0a0a0c" stroke-width="12" stroke-linecap="butt" stroke-linejoin="miter" stroke-miterlimit="4" fill="none"></path></g>
    <g transform="translate(204,0)"><path d="M 6 0 L 50 0" stroke="#0a0a0c" stroke-width="12" stroke-linecap="butt" stroke-linejoin="miter" stroke-miterlimit="4" fill="none"></path><path d="M 28 0 L 28 80" stroke="#0a0a0c" stroke-width="12" stroke-linecap="butt" stroke-linejoin="miter" stroke-miterlimit="4" fill="none"></path><path d="M 6 80 L 50 80" stroke="#0a0a0c" stroke-width="12" stroke-linecap="butt" stroke-linejoin="miter" stroke-miterlimit="4" fill="none"></path></g>
  </g>
</svg>